# xmcd
# 
# Track frame offsets:
#     150
#     35154
#     69604
#     94199
#     124966
#     157835
#     173793
#     217293
#     253156
#     283714
#     312089
# 
# Disc length: 4652
# 
# Revision: 1
# Processed by: cddbd v1.5.2PL0 Copyright (c) Steve Scherf et al.
# Submitted via: fre:ac v1.0.17
# 
DISCID=a7122a0b
DTITLE=Haruki Murakami - Die Pilgerjahre des farblosen Herrn Tazaki [CD7]
DYEAR=2014
DGENRE=Hörbuch
TTITLE0=Die Pilgerjahre des farblosen Herrn Tazaki 075 [CD7]
TTITLE1=Die Pilgerjahre des farblosen Herrn Tazaki 076 [CD7]
TTITLE2=Die Pilgerjahre des farblosen Herrn Tazaki 077 [CD7]
TTITLE3=Die Pilgerjahre des farblosen Herrn Tazaki 078 [CD7]
TTITLE4=Die Pilgerjahre des farblosen Herrn Tazaki 079 [CD7]
TTITLE5=Die Pilgerjahre des farblosen Herrn Tazaki 080 [CD7]
TTITLE6=Die Pilgerjahre des farblosen Herrn Tazaki 081 [CD7]
TTITLE7=Die Pilgerjahre des farblosen Herrn Tazaki 082 [CD7]
TTITLE8=Die Pilgerjahre des farblosen Herrn Tazaki 083 [CD7]
TTITLE9=Die Pilgerjahre des farblosen Herrn Tazaki 084 [CD7]
TTITLE10=Die Pilgerjahre des farblosen Herrn Tazaki 085 [CD7]
EXTD=
EXTT0=
EXTT1=
EXTT2=
EXTT3=
EXTT4=
EXTT5=
EXTT6=
EXTT7=
EXTT8=
EXTT9=
EXTT10=
PLAYORDER=
